<svg xmlns="http://www.w3.org/2000/svg" width="380" height="67" viewBox="0 0 380 67">
 <g fill="#005daa">
  <path d="M369.1 42.9c-2-1.5-4.5-1.8-7.1-1.8-5.5 0-11 4.6-11.7 10.7-.8 6.2 3.8 12.1 9.9 12.1 3 0 6.2-1.1 8.9-2.7h.1l-3 4.6c-2 .9-4.1 1.3-6.2 1.3-9.5 0-15.6-5.6-14.4-14.6 1.1-8.7 8.6-14.5 16.8-14.5 2.5 0 4.9.5 7.2 1.1l-.5 3.8zM140.4 42.9c-2-1.5-4.5-1.8-7.1-1.8-5.5 0-11 4.6-11.7 10.7-.8 6.2 3.8 12.1 9.9 12.1 3 0 6.2-1.1 8.9-2.7h.1l-3 4.6c-2 .9-4.1 1.3-6.2 1.3-9.5 0-15.6-5.6-14.4-14.6 1.1-8.7 8.6-14.5 16.8-14.5 2.4 0 4.9.5 7.2 1.1l-.5 3.8zM146.6 44.5c.2-1.9.9-5-1-5.8v-.1h7.6v.1c-2.1.8-2.3 3.9-2.5 5.8l-2 15.9c-.2 1.9-.9 5 1 5.8v.1h-7.6v-.1c2.1-.8 2.3-3.9 2.5-5.8l2-15.9zM165.8 38.5c5.4 0 8.4 3 7.9 6.8-.5 3.7-4.3 6.6-7.7 7.4l4.8 7.6c1.4 2.2 3.7 4.4 5.8 5.9h-3.7c-2.1 0-3.4-.5-4.4-2.1l-4.1-6.4-2.9-5.9c3.3-.5 7.6-2.1 8.1-6 .4-3-2.3-5.2-5.1-5.3-1 0-1.6-.1-2.6 0l-2.5 19.9c-.2 1.9-.9 5 1.1 5.8v.1h-7.7v-.1c2.1-.8 2.3-3.9 2.5-5.8l2-15.9c.2-1.9.9-5-1-5.8v-.1h9.5zM187.1 38.5c5.4 0 8.4 3 7.9 6.8-.5 3.7-4.3 6.6-7.7 7.4l4.8 7.6c1.4 2.2 3.7 4.4 5.8 5.9h-3.7c-2.1 0-3.4-.5-4.4-2.1l-4.1-6.4-2.9-5.9c3.3-.5 7.6-2.1 8.1-6 .4-3-2.3-5.2-5.1-5.3-1 0-1.6-.1-2.6 0l-2.5 19.9c-.2 1.9-.9 5 1.1 5.8v.1H174v-.1c2.1-.8 2.3-3.9 2.5-5.8l2-15.9c.2-1.9.9-5-1-5.8v-.1h9.6zM207.9 67c-1 0-1.6 0-1.6 0-2.7 0-5.4-.9-7-3-1.8-2.4-1.4-5.3-1-8.3l1.4-11.3c.2-1.9.9-5-1-5.8v-.1h7.6v.1c-2.1.8-2.3 3.9-2.5 5.8l-1.4 11.3c-.7 5.6 1.2 8.2 5.4 8.2h1c4.1 0 6.7-2.6 7.4-8.2l1.4-11.3c.2-1.9.9-5-1-5.8v-.1h7.6v.1c-2.2.8-2.3 3.9-2.5 5.8l-1.4 11.3c-.4 3-.7 5.9-3.1 8.3-2.1 2.1-5 3-7.6 3-.2 0-.7 0-1.7 0"/>
  <path d="M242.1 43.5c-1.4-1.7-3.7-2.7-6-2.7s-5.3.9-5.7 3.8c-.7 5.8 13.1 5.7 12.1 13.5-.6 4.5-5.6 8.7-11.9 8.7-2.5 0-4.9-.4-7-1.3l-.5-5.3c2.1 2.2 5.2 3.5 8.4 3.5 2.3 0 5.9-1.4 6.3-4.4.8-6.6-13.1-5.4-12-14.3.7-5.3 6.1-7.3 11-7.3 2 0 4 .3 5.9.9l-.6 4.9zM266.2 63.5c2.3 0 4.1 0 7-1.6h.1l-1.9 4.4h-16.5v-.1c2.1-.8 2.3-3.9 2.5-5.8l2-15.9c.2-1.9.9-5-1.1-5.8v-.1h7.7v.1c-2.2.8-2.3 3.9-2.5 5.8l-2.3 18.4s2.2.6 5 .6M289.9 40.8c6.4 0 9.3 5.9 8.6 12.1-.8 6.3-5.3 11-11.4 11-6.3 0-9.5-6.1-8.8-12 .8-6.3 5.4-11.1 11.6-11.1m.7-3c-8.4-.2-15.9 6.5-16.9 14.5-1.1 8.7 4.9 14.7 12.8 14.7 8 0 15.6-6.2 16.7-14.9 1-7.6-4.1-14.3-12.6-14.3"/>
  <path d="M330 43.4h-.1c-1.4-1.9-4.4-2.5-6.8-2.5-6.3 0-11.6 4.3-12.4 11.1-.9 6.8 3.6 11.9 10 11.9 1.8 0 3.8-.3 5.7-.8l.6-6.1c.2-1.9.5-4-1.3-4.8v-.1h6.1v.1c-.3.5-.4 1.2-.4 1.8l-1.2 9.7c-.1.6-.2 1.3 0 1.9-3.3.6-6.5 1.3-9.8 1.3-10.3 0-15.6-5.9-14.6-14.4 1.1-9.1 8.7-14.7 18.5-14.7 2.1 0 4.2.3 6.2.7l-.5 4.9zM338.4 44.5c.2-1.9.9-5-1-5.8v-.1h7.6v.1c-2.1.8-2.3 3.9-2.5 5.8l-2 15.9c-.2 1.9-.9 5 1 5.8v.1h-7.6v-.1c2.1-.8 2.3-3.9 2.5-5.8l2-15.9zM373.4 41.6c0-1.8 1.3-3.1 2.9-3.1 1.6 0 2.9 1.3 2.9 3.1s-1.3 3.1-2.9 3.1c-1.7 0-2.9-1.3-2.9-3.1m2.9 3.7c1.9 0 3.6-1.6 3.6-3.7s-1.7-3.7-3.6-3.7c-2 0-3.6 1.6-3.6 3.7s1.6 3.7 3.6 3.7m-.8-3.4h.7l1.1 1.9h.7l-1.2-1.9c.6-.1 1.1-.4 1.1-1.2 0-.8-.5-1.2-1.4-1.2h-1.6v4.3h.6v-1.9zm0-.6V40h.8c.4 0 .9.1.9.6 0 .7-.5.7-1 .7h-.7zM113.3 27.9H50.8c-.2 1.2-.3 2.4-.4 3.7H23.6c0 .6 0 3 0 3.6H0c.1 1.1.2 2.2.3 3.3h112.9c.3-1.7.4-3.5.4-5.3.1-1.8-.1-3.6-.3-5.3M52.6 45.5H25.8c.5 1.3 1 2.5 1.6 3.7H3.8c.6 1.2 1.3 2.3 2 3.3h96.8l9.9-10.6h-61c.3 1.2.7 2.4 1.1 3.6M62.6 59.5H35.8c1.7 1.4 3.6 2.6 5.6 3.6H17.8c4.2 2.1 8.9 3.3 13.8 3.3 0 0 .1 0 .1 0h57.9l10-10.6H58.8c1.2 1.3 2.5 2.6 3.8 3.7"/>
  <path d="M105.2 10.6C99.4 4.1 91.2 0 82 0c-5.2 0-10.1 1.3-14.4 3.6H40.8c-1.9 1-3.7 2.3-5.4 3.6H11.8c-1.2 1-2.3 2.1-3.4 3.3h96.8zM112.6 24.6c-1-3.9-2.6-7.5-4.8-10.6H56.2c-.8 1.2-1.5 2.4-2.2 3.7H27.3c-.6 1.2-1.1 2.4-1.6 3.7H2.1c-.4 1.1-.7 2.2-1 3.3h111.5z"/>
 </g>
</svg>