<svg width="96" height="24" viewBox="0 0 96 24" fill="black" xmlns="http://www.w3.org/2000/svg">
<path d="M63.7363 11.9252C63.4374 11.3474 63.0391 10.8891 62.5409 10.5504C62.0428 10.2116 61.4347 10.0423 60.7178 10.0423C60.379 10.0423 60.0301 10.0821 59.6717 10.1618C59.3328 10.2415 59.0238 10.371 58.745 10.5504C58.4662 10.7098 58.2367 10.919 58.0578 11.178C57.8979 11.4371 57.8183 11.7558 57.8183 12.1344C57.8183 12.7919 58.0477 13.2701 58.506 13.569C58.9643 13.8679 59.6515 14.127 60.5681 14.3461L62.5707 14.8243C63.5467 15.0435 64.354 15.4918 64.9918 16.1693C65.6492 16.8268 65.9779 17.6537 65.9779 18.6499C65.9779 19.4071 65.8186 20.0646 65.4994 20.6225C65.201 21.1605 64.7921 21.6088 64.2743 21.9675C63.7762 22.3062 63.1984 22.5553 62.5409 22.7147C61.8829 22.8741 61.216 22.9538 60.5383 22.9538C59.4624 22.9538 58.4561 22.7545 57.5198 22.356C56.6032 21.9376 55.8162 21.2302 55.1582 20.234L56.8618 19.0684C57.2607 19.706 57.7588 20.2141 58.3562 20.5926C58.9744 20.9712 59.7014 21.1605 60.5383 21.1605C60.9366 21.1605 61.3355 21.1207 61.7337 21.041C62.132 20.9413 62.4809 20.8019 62.7799 20.6225C63.0985 20.4233 63.3476 20.1742 63.5271 19.8753C63.7263 19.5765 63.8261 19.2278 63.8261 18.8293C63.8261 18.1319 63.5669 17.6338 63.0486 17.3349C62.5308 17.0161 61.9031 16.767 61.166 16.5877L59.2532 16.1394C59.0142 16.0796 58.6855 15.98 58.267 15.8405C57.8682 15.701 57.4699 15.4918 57.0711 15.2128C56.693 14.9339 56.3637 14.5753 56.0849 14.1369C55.8061 13.6786 55.6664 13.1207 55.6664 12.4632C55.6664 11.7459 55.8061 11.1182 56.0849 10.5802C56.3839 10.0423 56.7726 9.60391 57.2506 9.2652C57.7487 8.92644 58.3069 8.67737 58.9245 8.51801C59.5421 8.33867 60.1799 8.24903 60.8373 8.24903C61.8134 8.24903 62.7199 8.43829 63.5568 8.81688C64.3938 9.19547 65.0411 9.84304 65.4994 10.7596L63.7363 11.9252ZM71.4708 22.5951H69.4979V0H71.4708V22.5951ZM84.1798 15.6313C83.6817 15.6313 83.054 15.6612 82.2973 15.721C81.5596 15.7608 80.8427 15.8803 80.1449 16.0796C79.4678 16.2589 78.8799 16.5478 78.3818 16.9463C77.9033 17.3448 77.6643 17.8928 77.6643 18.5901C77.6643 19.0484 77.7541 19.4469 77.9336 19.7857C78.1327 20.1045 78.3919 20.3735 78.7105 20.5926C79.0291 20.7919 79.378 20.9413 79.7567 21.041C80.155 21.1207 80.5538 21.1605 80.9521 21.1605C81.6696 21.1605 82.2872 21.041 82.8049 20.8019C83.3429 20.5627 83.7916 20.244 84.1501 19.8454C84.5086 19.427 84.7677 18.9488 84.927 18.4109C85.1065 17.8529 85.1963 17.2652 85.1963 16.6474V15.6313H84.1798ZM85.1963 14.0173V13.6587C85.1963 11.2477 84.0009 10.0423 81.6095 10.0423C79.9755 10.0423 78.5512 10.5902 77.3356 11.6861L76.1402 10.2814C77.4551 8.92644 79.428 8.24903 82.0577 8.24903C82.7354 8.24903 83.3827 8.34865 84.0009 8.54791C84.6381 8.74716 85.1862 9.05596 85.6445 9.47438C86.1028 9.87288 86.4713 10.381 86.7501 10.9987C87.0295 11.6163 87.1686 12.3536 87.1686 13.2103V19.4569C87.1686 19.9949 87.1888 20.5627 87.2286 21.1605C87.2881 21.7383 87.3481 22.2166 87.4076 22.5951H85.4953C85.4352 22.2564 85.3853 21.8878 85.3455 21.4893C85.3259 21.0908 85.3158 20.7023 85.3158 20.3237H85.2557C84.678 21.2601 83.9908 21.9376 83.1937 22.356C82.4167 22.7545 81.4603 22.9538 80.3244 22.9538C79.7068 22.9538 79.1088 22.8641 78.531 22.6848C77.9532 22.5254 77.4355 22.2763 76.9772 21.9376C76.5385 21.5789 76.18 21.1506 75.9012 20.6524C75.6421 20.1343 75.5125 19.5366 75.5125 18.8592C75.5125 17.7234 75.8014 16.8368 76.3792 16.1991C76.9772 15.5416 77.7142 15.0534 78.591 14.7346C79.4874 14.4158 80.4338 14.2166 81.43 14.1369C82.4465 14.0572 83.3732 14.0173 84.2096 14.0173H85.1963ZM94.5973 3.22785C94.5973 3.64627 94.4481 3.99496 94.1491 4.27393C93.8502 4.53298 93.5214 4.66244 93.163 4.66244C92.804 4.66244 92.4753 4.53298 92.1768 4.27393C91.8778 3.99496 91.7281 3.64627 91.7281 3.22785C91.7281 2.80944 91.8778 2.47068 92.1768 2.21168C92.4753 1.93272 92.804 1.79326 93.163 1.79326C93.5214 1.79326 93.8502 1.93272 94.1491 2.21168C94.4481 2.47068 94.5973 2.80944 94.5973 3.22785ZM94.1491 22.5951H92.1768V8.60765H94.1491V22.5951Z" fill="black"/>
<path d="M4.67094 11.5467C7.25008 11.5467 9.3409 9.4559 9.3409 6.87675C9.3409 4.2976 7.25008 2.20679 4.67094 2.20679C2.09179 2.20679 0.000976562 4.2976 0.000976562 6.87675C0.000976562 9.4559 2.09179 11.5467 4.67094 11.5467Z" fill="black"/>
<path d="M16.5 11.546C19.0792 11.546 21.17 9.45516 21.17 6.87602C21.17 4.29687 19.0792 2.20605 16.5 2.20605C13.9209 2.20605 11.8301 4.29687 11.8301 6.87602C11.8301 9.45516 13.9209 11.546 16.5 11.546Z" fill="black"/>
<path d="M28.3311 11.546C30.9102 11.546 33.001 9.45516 33.001 6.87602C33.001 4.29687 30.9102 2.20605 28.3311 2.20605C25.7519 2.20605 23.6611 4.29687 23.6611 6.87602C23.6611 9.45516 25.7519 11.546 28.3311 11.546Z" fill="black"/>
<path d="M40.1621 11.546C42.7413 11.546 44.8321 9.45516 44.8321 6.87602C44.8321 4.29687 42.7413 2.20605 40.1621 2.20605C37.583 2.20605 35.4922 4.29687 35.4922 6.87602C35.4922 9.45516 37.583 11.546 40.1621 11.546Z" fill="black"/>
<path d="M4.66996 24.0001C7.24911 24.0001 9.33992 21.9093 9.33992 19.3301C9.33992 16.751 7.24911 14.6602 4.66996 14.6602C2.09081 14.6602 0 16.751 0 19.3301C0 21.9093 2.09081 24.0001 4.66996 24.0001Z" fill="black"/>
<path d="M16.5 24.0001C19.0792 24.0001 21.17 21.9093 21.17 19.3301C21.17 16.751 19.0792 14.6602 16.5 14.6602C13.9209 14.6602 11.8301 16.751 11.8301 19.3301C11.8301 21.9093 13.9209 24.0001 16.5 24.0001Z" fill="black"/>
<path d="M28.3311 24.0001C30.9102 24.0001 33.001 21.9093 33.001 19.3301C33.001 16.751 30.9102 14.6602 28.3311 14.6602C25.7519 14.6602 23.6611 16.751 23.6611 19.3301C23.6611 21.9093 25.7519 24.0001 28.3311 24.0001Z" fill="black"/>
<path d="M40.1621 24.0001C42.7413 24.0001 44.8321 21.9093 44.8321 19.3301C44.8321 16.751 42.7413 14.6602 40.1621 14.6602C37.583 14.6602 35.4922 16.751 35.4922 19.3301C35.4922 21.9093 37.583 24.0001 40.1621 24.0001Z" fill="black"/>
</svg>
